<svg xmlns="http://www.w3.org/2000/svg" viewBox="0 0 185.966 211.667">
  <defs>
    <path id="a" d="M695.13 197.653h98.571v133.788H695.13z" />
  </defs>
  <path
    d="M3914.47 805.729c-3.116-.754-7.281.012-11.748 1.357-13.323 3.99-14.483 11.24-5.21 30.15l2.362 4.804-.504.908-8.396-5.64c-19.029-12.658-23.208-3.872-23.353 8.343-.114 14.048 6.306 17.332 27.187 14.324l5.694-.82.534.924-8.297 6.641c-18.575 14.837-10.974 20.524.75 24.447 13.426 4.38 18.639-.48 21.924-21.5l.752-4.752 1.104-.225 3.443 9.526c8.117 22.249 16.64 16.711 23.708 6.873 8.254-11.345 5.001-17.691-13.707-27.657l-4.782-2.585.018-1.038 10.512-.312c23.1-.589 21.068-10.519 13.846-20.536-8.179-11.316-15.042-10.027-30.437 4.619l-3.85 3.661-1.215-.326 3.045-10.394c4.093-14.057 1.813-19.536-3.38-20.792zm92 70.215c-2.127-.63-4.753-.719-7.959-.38-11.078 1.105-19.401 5.344-5.423 22.027l6 7.119-.687.774-4.127-1.585c-18.24-7.043-24.503-5.128-27.187 7.57-2.264 11.134-1.23 19.796 19.113 11.83l9.098-3.552.49.85-3.27 4.156c-11.988 15.236-12.324 21.855-1.091 28.22 9.788 5.497 18.701 6.208 17.37-14.754l-.63-9.273.954.016 2.739 4.088c10.788 16.069 17.091 18.476 26.39 9.707 8.327-7.832 12.392-15.847-8.518-20.97l-9.672-2.353.3-1.118 4.682-1.38c18.731-5.524 22.911-10.394 17.663-22.103-4.654-10.351-11.624-16.532-22.707 1.583l-5.078 8.223-.834-.463.14-4.994c.498-14.602-1.378-21.349-7.756-23.238zm-77.568 20.3c-9.862-2.306-17.009 2.99-15.51 26.573l.944 13.912-1.431-.024-4.108-6.133c-16.184-24.105-25.64-27.717-39.588-14.561-12.492 11.748-18.59 23.772 12.777 31.458l14.51 3.528-.45 1.677-7.024 2.071c-28.098 8.286-34.37 15.591-26.496 33.156 6.981 15.528 17.436 24.8 34.062-2.375l7.619-12.335 1.251.695-.21 7.491c-.997 29.205 4.338 37.464 23.573 35.43 16.618-1.658 29.104-8.017 8.135-33.044l-9-10.678 1.03-1.161 6.193 2.377c27.36 10.566 36.756 7.693 40.781-11.356 3.397-16.701 1.847-29.696-28.67-17.746l-13.649 5.328-.736-1.275 4.905-6.234c17.985-22.856 18.49-32.785 1.639-42.332-3.671-2.061-7.26-3.674-10.547-4.443z"
    style="font-style:normal;font-variant:normal;font-weight:400;font-stretch:normal;font-size:55.0271px;line-height:1.25;font-family:Basteleur;-inkscape-font-specification:Basteleur;white-space:pre;shape-inside:url(#a);display:inline;stroke-width:6.30911"
    transform="translate(-3859.053 -805.432)" />
</svg>