<?xml version="1.0" encoding="UTF-8" standalone="no"?>
<svg
   viewBox="0 0 195.97126 221.67452"
   version="1.1"
   id="svg1"
   sodipodi:docname="cogs_basteleur&amp;icon.svg"
   inkscape:export-filename="flowers_icon&amp;.svg"
   inkscape:export-xdpi="300"
   inkscape:export-ydpi="300"
   inkscape:version="1.3 (0e150ed6c4, 2023-07-21)"
   width="195.97127"
   height="221.67453"
   xmlns:inkscape="http://www.inkscape.org/namespaces/inkscape"
   xmlns:sodipodi="http://sodipodi.sourceforge.net/DTD/sodipodi-0.dtd"
   xmlns="http://www.w3.org/2000/svg"
   xmlns:svg="http://www.w3.org/2000/svg">
  <sodipodi:namedview
     id="namedview1"
     pagecolor="#ffffff"
     bordercolor="#666666"
     borderopacity="1.0"
     inkscape:showpageshadow="2"
     inkscape:pageopacity="0.0"
     inkscape:pagecheckerboard="0"
     inkscape:deskcolor="#d1d1d1"
     inkscape:zoom="3.5669234"
     inkscape:cx="98.123778"
     inkscape:cy="88.451577"
     inkscape:current-layer="svg1" />
  <defs
     id="defs1">
    <path
       id="a"
       d="m 695.13,197.653 h 98.571 V 331.441 H 695.13 Z" />
  </defs>
  <path
     id="path1"
     style="font-style:normal;font-variant:normal;font-weight:400;font-stretch:normal;font-size:55.0271px;line-height:1.25;font-family:Basteleur;-inkscape-font-specification:Basteleur;white-space:pre;shape-inside:url(#a);display:inline;fill:#7fffd4;fill-opacity:1;stroke:#0f7e5d;stroke-width:10;stroke-linecap:round;stroke-linejoin:round;stroke-dasharray:none;stroke-opacity:1;paint-order:stroke fill markers"
     d="m 57.896237,5.0018356 c -2.6953,-0.03961 -5.8743,0.6436 -9.2246,1.6523499 -13.323,3.9899905 -14.4839,11.2404095 -5.2109,30.1503895 l 2.3613,4.80273 -0.5039,0.90821 -8.3945,-5.63868 c -19.029,-12.65798 -23.2085,-3.87319 -23.3535,8.3418 -0.114,14.04799 6.3065,17.33222 27.1875,14.32422 l 5.6933,-0.82031 0.5332,0.92382 -8.2969,6.64063 c -18.5749,14.83698 -10.9739,20.52427 0.75,24.44727 13.426,4.37999 18.6389,-0.48003 21.9239,-21.5 l 0.7519,-4.75196 1.1055,-0.22461 3.4414,9.52539 c 8.117,22.24898 16.641,16.71104 23.709,6.87305 8.254,-11.34499 5.0009,-17.69026 -13.707,-27.65625 l -4.7813,-2.58594 0.0176,-1.03711 10.5117,-0.3125 c 23.100003,-0.589 21.067703,-10.51816 13.8457,-20.53515 -8.179,-11.31599 -15.0425,-10.02685 -30.4375,4.61914 l -3.8496,3.66015 -1.2148,-0.32617 3.0449,-10.39258 c 4.093,-14.056979 1.8141,-19.5369695 -3.3789,-20.7929594 -0.779,-0.1885 -1.625,-0.28172 -2.5235,-0.29493 z M 146.75764,74.958865 c -0.7303,0.02949 -1.4974,0.08908 -2.2989,0.17383 -11.078,1.105 -19.3998,5.34241 -5.4218,22.02539 l 6,7.119145 -0.6875,0.77539 -4.127,-1.58593 c -18.24,-7.043005 -24.5035,-5.127685 -27.1875,7.57031 -2.264,11.13399 -1.2297,19.79607 19.1133,11.83008 l 9.0976,-3.55274 0.4903,0.84961 -3.2696,4.15625 c -11.9879,15.23599 -12.3247,21.85571 -1.0918,28.22071 9.788,5.49699 18.7021,6.20807 17.3711,-14.75391 l -0.6308,-9.27344 0.9551,0.0156 2.7382,4.08789 c 10.788,16.06898 17.0917,18.47602 26.3907,9.70703 8.327,-7.83199 12.3924,-15.84576 -8.5176,-20.96875 l -9.6719,-2.35352 0.2988,-1.11718 4.6817,-1.38086 c 18.731,-5.524 22.912,-10.39453 17.664,-22.103525 -4.654,-10.35099 -11.624,-16.531 -22.707,1.58399 l -5.0781,8.222655 -0.834,-0.46289 0.1406,-4.994145 c 0.498,-14.60199 -1.3778,-21.34928 -7.7558,-23.23828 -1.5953,-0.4725 -3.4713,-0.64119 -5.6621,-0.55274 z m -75.466803,20.36524 c -7.9543,-0.20873 -13.2609,6.425445 -11.9493,27.060555 l 0.9434,13.91211 -1.4316,-0.0234 -4.1075,-6.13281 c -16.1839,-24.10498 -25.6399,-27.71849 -39.5879,-14.5625 -12.4918997,11.74798 -18.5895997,23.77299 12.7774,31.45898 l 14.5098,3.52734 -0.4512,1.67774 -7.0235,2.07031 C 6.8725373,162.59842 0.60043725,169.9037 8.4744373,187.46868 c 6.9808997,15.52795 17.4364997,24.79995 34.0624997,-2.375 l 7.6191,-12.33398 1.25,0.69336 -0.209,7.49218 c -0.997,29.20499 4.3373,37.46369 23.5723,35.42969 16.618,-1.658 29.103703,-8.0179 8.1347,-33.04492 l -9,-10.67774 1.0313,-1.16015 6.1934,2.37695 c 27.359903,10.56599 36.754303,7.69351 40.779203,-11.35547 3.397,-16.70098 1.8471,-29.69608 -28.669903,-17.74609 l -13.6484,5.32812 -0.7363,-1.27539 4.9062,-6.23437 c 17.985003,-22.85598 18.489703,-32.78504 1.6387,-42.33203 -3.671,-2.061005 -7.2599,-3.674365 -10.5469,-4.443365 v 0.0019 c -1.2327,-0.28825 -2.4242,-0.45846 -3.5605,-0.48828 z"
     inkscape:export-filename=".\path1.svg"
     inkscape:export-xdpi="300"
     inkscape:export-ydpi="300" />
</svg>
