<svg xmlns="http://www.w3.org/2000/svg" viewBox="0 0 196 221.7">
  <path fill="#7fffd4" stroke="#0f7e5d" stroke-linecap="round" stroke-linejoin="round" stroke-width="10" d="M57.9 5a32 32 0 0 0-9.2 1.7c-13.4 4-14.5 11.2-5.2 30.1l2.3 4.8-.5 1-8.4-5.7C18 24.2 13.7 33 13.6 45.2c-.1 14 6.3 17.4 27.2 14.3l5.7-.8.5 1-8.3 6.6c-18.6 14.8-11 20.5.7 24.4 13.5 4.4 18.7-.4 22-21.5l.7-4.7 1.1-.2 3.5 9.5c8 22.2 16.6 16.7 23.7 6.9 8.2-11.4 5-17.7-13.7-27.7l-4.8-2.6v-1l10.5-.3c23.1-.6 21-10.6 13.9-20.6-8.2-11.3-15-10-30.5 4.6L62 36.8l-1.2-.3 3-10.4c4-14 1.8-19.5-3.4-20.8a10 10 0 0 0-2.5-.3zm88.9 70-2.3.1c-11.1 1.1-19.4 5.4-5.5 22l6 7.2-.7.8-4-1.6c-18.3-7-24.6-5.2-27.3 7.5-2.2 11.2-1.2 19.8 19.1 11.9l9.1-3.6.5.9-3.2 4.1c-12 15.3-12.4 21.9-1.1 28.2 9.8 5.5 18.7 6.2 17.3-14.7l-.6-9.3h1l2.7 4.1c10.8 16 17.1 18.5 26.4 9.7 8.3-7.8 12.4-15.8-8.5-21L166 119l.3-1.1 4.7-1.4c18.7-5.5 22.9-10.4 17.7-22.1C184 84 177 77.9 165.9 96l-5 8.2-.9-.5.2-5c.5-14.6-1.4-21.3-7.8-23.2-1.6-.5-3.5-.6-5.6-.5zM71.3 95.3c-8-.2-13.3 6.4-12 27l1 14h-1.4l-4.2-6.2c-16.1-24-25.6-27.7-39.5-14.5C2.7 127.3-3.4 139.4 27.9 147l14.5 3.6-.4 1.6-7 2.1C6.9 162.6.6 170 8.5 187.5c7 15.5 17.4 24.8 34-2.4l7.7-12.3 1.2.7-.2 7.4c-1 29.3 4.3 37.5 23.6 35.5 16.6-1.7 29-8 8.1-33l-9-10.7 1-1.2 6.2 2.4c27.4 10.5 36.8 7.7 40.8-11.4 3.4-16.7 1.9-29.7-28.7-17.7L79.6 150l-.7-1.3 4.9-6.2c18-22.9 18.4-32.8 1.6-42.3a42 42 0 0 0-10.5-4.5v0c-1.3-.3-2.5-.4-3.6-.5z" font-family="Basteleur" font-size="55" font-weight="400" paint-order="stroke fill markers" style="line-height:1.25;-inkscape-font-specification:Basteleur;white-space:pre;shape-inside:url(#a)"/>
</svg>
