<svg xmlns="http://www.w3.org/2000/svg" viewBox="0 0 43.816 16.492">
  <path d="M46.175 238.919c-2.446 0-5.583 1.341-6.51 3.709-.77 1.972-1.183 2.406-2.051 2.761-.474.197-.612.75-.355 1.184.552.927 1.913-.415 1.913 2.92v.571c0 1.657-.118 1.993-.612 2.644-.808 1.065-1.518.907-1.518 1.834 0 .513.473.868 1.203.868h3.676c2.27-.618.131-4.839.131-7.2v-1.065l1.756.118c1.676.118 1.854-.533 2.426-1.618.237-.453.08-.769-.572-.749l-3.53.098c.137-1.972.532-3.471 1.597-3.471 1.144 0 1.381 1.992 2.15 1.953.79-.06.69-.928.79-2.052.078-.809.216-1.302.196-1.914-.02-.414-.217-.591-.69-.591zm4.411 0c-1.9 0-3.43 1.485-3.43 3.327 0 1.934 1.53 3.35 3.43 3.35 1.888 0 3.43-1.497 3.43-3.35 0-1.923-1.542-3.327-3.43-3.327zm11.14 0c-1.087 0-3.474.056-4.498.056-.525 0-2.074.13-2.449.13-.462 0-.762.24-.762.639 0 .44.325.466.837 1.184.312.44.387 1.438.387 2.556v1.29c0 1.119-.075 2.116-.387 2.556-.512.718-.962.612-.962 1.238 0 .346.3.585.762.585.637 0 .974-.106 1.5-.106.536 0 .999.106 1.498.106.463 0 .762-.24.762-.585 0-.626-.45-.52-.962-1.238-.262-.386-.362-1.172-.374-1.677-.013-.64.225-.772.774-.48 1.562.812.937 4.113 3.698 3.993 2.62-.013 3.477-1.144 3.477-3.766 0-1.091-1.112-1.464-1.949-1.464-1.062 0-1.374 1.288-1.074 1.953.575 1.251.924 1.946.45 2.106-.987.333-.325-3.367-3.161-3.46 2.898-.679 5.185-2.143 5.185-3.58 0-1.185-1.666-2.036-2.753-2.036zm6.711 0a3.05 3.05 0 0 0-.754.1c-1.336.358-2.315 1.665-2.625 2.577-.197.575.61.706.972.272.46-.534.89-1.039 2.054-1.35 1.164-.312 1.72-.356 2.385-.123.548.263 1.185-.079.776-.457-.604-.512-1.709-1.032-2.808-1.02zm8.135 0c-1.48 0-2.762.655-3.548 1.938-.196.321-.226.481 0 .629.182.12.318.08.635-.161.437-.334.86-.575 1.72-.575 1.118 0 .86 1.19.814 3.102 0 .24-.03.588-.06.962l-.98-.133c-1.283-.08-1.434.36-1.857 1.096-.18.307-.06.521.438.508l2.46-.094c-.183 1.208-.066 2.912 2.733.83.604-.455 1.208-.696 1.57-.937.317-.214.468-.508.272-.802-.422-.628-1.51.414-1.313-2.473.15-2.246-1.057-3.89-2.884-3.89zm-26.801 1.069c.873-.03 1.845 1.09 2.231 2.05.414 1.037.437 2.05-.265 2.28-.91.3-1.957-.714-2.44-1.83-.507-1.163-.46-2.234.207-2.453a.938.938 0 0 1 .267-.047zm9.947.439c.71-.029 1.274.327 1.274.967 0 1.648-3.927 2.715-3.927 2.09 0-1.73.667-2.702 2.34-3.022.107-.02.211-.031.313-.035zm9.816.42a3.9 3.9 0 0 0-3.417 1.94c-1.061 1.838-.513 4.156 1.325 5.217 1.553.897 2.98.398 4.071-.456.272-.212.393-.44.307-.57-.144-.21-.344-.142-.72.032-.708.328-1.57.405-2.38-.063-.967-.558-1.587-1.537-1.486-2.388.092-.798.498-.564.884-.375.987.5 1.255.874 1.246 1.329-.013.44.075.826.45.915.303.072.643-.399.966-1.156.26-.61.318-1.289-.14-1.553-.543-.314-.69.58-2.13-.413-.446-.304-.743-.487-.217-1 .64-.55 1.506-.695 2.274-.251.794.458 1.07 1.193 1.106 2.168.023.657.331.801.68.657.288-.121 1.124-1.192 1.261-1.469.188-.386 0-.518-.62-.76-.645-.258-.644-.717-1.697-1.325a3.612 3.612 0 0 0-1.763-.48zM48.72 246.06c-1.667 0-2.746.76-3.378 2.102-.524 1.117-.806 1.363-1.397 1.564-.323.112-.417.425-.242.67.376.526 1.304-.234 1.304 1.655v.324c0 .938-.08 1.128-.417 1.497-.551.603-1.035.514-1.035 1.04 0 .29.323.491.82.491.686 0 1.048-.078 1.613-.078.578 0 1.075.078 1.613.078.497 0 .82-.201.82-.492 0-.525.045-.436-.506-1.04-.336-.368-.417-1.228-.417-2.167v-.983l.667.067c1.142.067 1.263-.302 1.653-.916.161-.257.054-.436-.39-.425l-1.876.056c.094-1.118-.167-1.967.56-1.967.779 0 .94 1.129 1.464 1.106.538-.033.471-.525.538-1.162-.08-.886-.525-1.372-1.394-1.42zm2.598 0a.455.455 0 0 0-.314.152c-.287.292-.164.842-.072 1.268.102.449.184.764.184 2.84v1.39c0 .943-.061 1.785-.318 2.156-.42.606-.789.516-.789 1.043 0 .292.246.494.626.494.41 0 .789-.09 1.23-.09.43 0 .707.09 1.23.09.379 0 .625-.202.625-.494 0-.527-.37-.437-.79-1.043-.256-.37-.317-1.213-.317-2.155v-1.336c0-2.345.707-2.03.994-2.558.133-.247.03-.494-.185-.673-.246-.202-.707-.37-1.168-.674-.448-.294-.729-.418-.936-.41zm23.366 1.52c-.172-.006-.362.065-.543.219-.336.295-.548.48-.897.69-.45.27-.786.368-1.085.59-.262.197-.386.467-.224.738.349.578 1.321.11 1.321 1.513 0 1.034-.075 1.981-.387 2.387-.448.59-.835.53-.835 1.108 0 .32.3.578.76.578.636 0 .848-.099 1.372-.099.536 0 .748.099 1.122.099.337 0 .611-.222.636-.542.025-.307-.187-.664-.46-1.144-.737-1.292-.612-3.248.71-3.802 1.334-.553 1.939 1.477 1.378 3.101-.574 1.673-.805 1.267-.78 1.845.013.308.174.542.636.542.51 0 .598-.099 1.122-.099.536 0 1.06.099 1.559.099.461 0 .723-.222.76-.542.038-.356-.05-.529-.424-.898-.536-.529-.623-.96-.374-2.756.274-1.944-.66-2.916-2.182-2.916-1.247 0-2.206.554-2.792 1.624 0-1.378.224-1.845.037-2.104a.536.536 0 0 0-.43-.232zm-9.231.852a.906.906 0 0 0-.215.022 1.034 1.034 0 0 0-.461.22 1.08 1.08 0 0 0-.34.5.992.992 0 0 0-.048.311.983.983 0 0 0 .022.215.945.945 0 0 0 .062.2 1.08 1.08 0 0 0 .765.628 1.14 1.14 0 0 0 .432 0 1.05 1.05 0 0 0 .296-.107 1.046 1.046 0 0 0 .316-.26 1.039 1.039 0 0 0 .238-.783c-.004-.035-.007-.069-.015-.103a.916.916 0 0 0-.063-.197 1.021 1.021 0 0 0-.228-.335 1.09 1.09 0 0 0-.761-.31zm3.758 1.059c-1.682 0-3.038 1.315-3.038 2.946 0 1.712 1.356 2.966 3.038 2.966 1.672 0 3.038-1.325 3.038-2.966 0-1.703-1.366-2.946-3.038-2.946zm-8.97.596a.549.549 0 0 0-.077.002 6.41 6.41 0 0 1-1.02 0 .424.424 0 0 0-.471.423c0 .352.147.27.425.595.193.225.741.937 1.035 1.378l.247.379a13.645 13.645 0 0 1-1.367 1.315c-.278.234-.526.396-.526.712 0 .171.132.297.348.297.224 0 .634-.055.88-.055.24 0 .565.055.859.055.208 0 .347-.126.347-.297 0-.316-.417-.234-.425-.559-.008-.153.155-.441.363-.739l.533.802c.402.613.904.856 1.592.856h.86c.226 0 .506-.061.83-.061.317 0 .596.061.98.061.28 0 .46-.158.46-.354 0-.355-.386-.384-.655-.68-.21-.23-.88-.87-.88-1.353 0-.403 1.192-.101 1.076-.874-.034-.224-.709-.591-1.076-.74-1.15-.463-1.464.8-1.464 1.095 0 .68.97 1.616.775 1.872-.112.146-.213.247-.359.276-.106.022-.213-.068-.416-.251a8.113 8.113 0 0 1-1.035-1.18l-.371-.505c.572-.649.942-1.054 1.197-1.306.394-.406.65-.469.673-.766.015-.198-.108-.396-.394-.396-.31 0-.417.072-.75.072-.324 0-.463-.072-.695-.072-.216 0-.317.198-.317.396 0 .288.185.225.247.532.039.198-.17.513-.417.82a6.97 6.97 0 0 1-.425-.875c-.174-.464-.225-.857-.587-.875zm-3.96.058c-1.38 0-2.561 1.182-2.561 2.63 0 1.446 1.113 2.628 2.56 2.628 1.223 0 1.896-.781 2.249-1.657.088-.218.081-.395-.014-.442-.156-.075-.251.034-.414.265-.306.435-.788.774-1.427.774-.76 0-.931-.367-1.162-.903-.218-.503.102-.503.394-.523.754-.041.51.088.66.36.142.265.325.462.577.387.204-.061.244-.455.176-1.012-.054-.449-.25-.87-.61-.87-.429 0 .318.578-.871.483-.367-.028-.605-.034-.469-.517.19-.543.47-.898.728-.923.622-.06 1.04.34 1.393.903.237.38.468.36.624.156.13-.17.258-1.087.245-1.297-.02-.292-.177-.306-.625-.238-.469.068-.625-.204-1.454-.204zm12.208.292c.773-.026 1.634.966 1.976 1.816.367.918.387 1.814-.235 2.018-.805.265-1.733-.632-2.16-1.62-.45-1.03-.409-1.978.183-2.172a.835.835 0 0 1 .236-.042z" font-family="Basteleur" font-size="24" style="line-height:1.25;-inkscape-font-specification:Basteleur;white-space:pre" transform="translate(-37.042 -238.919)"/>
</svg>
